<svg width="170" height="35" viewBox="0 0 170 35" fill="none" xmlns="http://www.w3.org/2000/svg">
<path d="M22.4528 15.885C22.3816 14.6631 22.0964 13.4411 21.5262 12.3821L16.6792 2.68822C16.3229 1.95507 16.0377 1.14045 15.8952 0.325836L15.6813 0.733144C14.4696 3.09553 14.4696 6.1096 15.6813 8.47199L19.6017 16.2108C20.8134 18.5732 20.8134 21.5873 19.6017 23.9497L19.3878 24.357C19.2453 23.5424 18.9602 22.7278 18.6038 21.9946L15.0398 14.9074L12.7589 10.3456C12.4025 9.61245 12.1174 8.79783 11.9748 7.98322L11.761 8.39053C10.5493 10.7529 10.5493 13.6855 11.761 16.1294L15.6813 23.8682C16.8931 26.2306 16.8931 29.2447 15.6813 31.6071L15.4675 32.0144C15.3249 31.1998 15.0398 30.3851 14.6834 29.652L9.7652 19.9581C9.12369 18.6547 8.83857 17.1884 8.83857 15.7221C3.63522 17.2698 0 20.6098 0 24.4384C0 29.8149 6.98532 34.1324 15.6101 34.1324C24.2348 34.1324 31.2201 29.8149 31.2201 24.4384C31.2914 20.7727 27.7275 17.4328 22.4528 15.885ZM37.2076 32.4217C37.2788 31.0368 37.4214 30.1407 37.7778 29.0003C39.4172 29.8964 41.5556 30.3037 43.1237 30.3037C45.8323 30.3037 47.4004 29.3261 47.4004 27.2896C47.4004 25.3345 46.26 24.4384 43.5514 23.0536L42.0545 22.4019C39.2746 21.0171 37.4214 19.2249 37.4214 15.7221C37.4214 11.8934 39.7736 9.44953 44.478 9.44953C46.4025 9.44953 48.1845 9.77537 49.8239 10.4271C49.7526 11.7304 49.5388 12.7894 49.2537 13.767C47.6855 13.1153 45.761 12.7894 44.4067 12.7894C41.8407 12.7894 40.7002 13.9299 40.7002 15.7221C40.7002 17.4328 41.8407 18.4918 43.9078 19.4693L45.4759 20.2024C49.1824 21.9946 50.7505 23.9497 50.7505 27.2081C50.7505 31.0368 48.1845 33.7251 43.195 33.7251C40.8428 33.7251 38.847 33.3177 37.2076 32.4217ZM66.5032 16.3738V33.1548H63.5094L63.3669 31.1183C62.5115 32.5846 61.2998 33.5621 59.2327 33.5621C55.3836 33.5621 52.7463 30.3037 52.7463 24.6828C52.7463 18.8176 55.5262 15.3962 60.9434 15.3962C63.0818 15.4777 64.8637 15.7221 66.5032 16.3738ZM63.2956 29.3261V18.8176C62.6541 18.6547 61.87 18.6547 60.9434 18.6547C57.5933 18.6547 56.0252 21.0171 56.0252 24.7643C56.0252 28.1857 57.2369 30.6295 60.0881 30.6295C61.4424 30.5481 62.4403 30.0593 63.2956 29.3261ZM83.0398 21.9131V33.1548H79.8323V22.5648C79.8323 19.8766 79.0482 18.6547 75.8407 18.6547C75.0566 18.6547 74.2013 18.7361 73.2746 18.8991V33.1548H70.0671V16.3738C72.1342 15.8035 74.4151 15.3962 75.9119 15.3962C81.3291 15.4777 83.0398 17.8401 83.0398 21.9131ZM92.021 30.4666C92.9476 30.4666 93.8742 30.3037 94.5157 29.9778C94.4445 30.9554 94.3019 32.0958 94.1593 33.0734C93.304 33.4807 92.3061 33.6436 91.4507 33.6436C88.3145 33.6436 86.3187 32.0144 86.3187 27.9413V10.2641C87.3166 9.85683 88.5283 9.69391 89.5262 9.69391V16.0479H94.6583C94.587 17.1884 94.5157 18.2474 94.3732 19.2249H89.5262V27.4525C89.5262 29.5705 90.4528 30.4666 92.021 30.4666ZM109.342 16.3738V33.1548H106.348L106.205 31.1183C105.35 32.5846 104.138 33.5621 102.071 33.5621C98.2222 33.5621 95.5849 30.3037 95.5849 24.6828C95.5849 18.8176 98.3648 15.3962 103.782 15.3962C105.92 15.4777 107.631 15.7221 109.342 16.3738ZM106.063 29.3261V18.8176C105.421 18.6547 104.637 18.6547 103.711 18.6547C100.361 18.6547 98.7925 21.0171 98.7925 24.7643C98.7925 28.1857 100.004 30.6295 102.855 30.6295C104.21 30.5481 105.279 30.0593 106.063 29.3261ZM125.878 21.9131V33.1548H122.6V22.5648C122.6 19.8766 121.816 18.6547 118.608 18.6547C117.824 18.6547 116.969 18.7361 116.042 18.8991V33.1548H112.834V16.3738C114.901 15.8035 117.182 15.3962 118.679 15.3962C124.096 15.4777 125.878 17.8401 125.878 21.9131ZM142.201 9.69391V33.1548H139.208L139.065 31.0368C138.21 32.5846 136.998 33.5621 134.86 33.5621C131.01 33.5621 128.373 30.3037 128.373 24.6828C128.373 18.8176 131.153 15.3962 136.57 15.3962C137.426 15.3962 138.21 15.4777 138.994 15.6406V10.1012C139.992 9.77537 141.132 9.69391 142.201 9.69391ZM138.994 29.3261V18.9805C138.138 18.8176 137.283 18.6547 136.428 18.6547C133.22 18.6547 131.723 20.9356 131.723 24.7643C131.723 28.1857 132.935 30.6295 135.786 30.6295C137.069 30.5481 138.138 30.0593 138.994 29.3261ZM158.453 25.9862H148.117C148.545 29.0003 150.042 30.3851 152.964 30.3851C154.746 30.3851 156.528 29.9778 158.096 29.0818C157.954 30.0593 157.811 31.3627 157.597 32.4217C156.101 33.1548 154.604 33.4807 152.822 33.4807C147.405 33.4807 144.839 30.0593 144.839 24.357C144.839 19.3878 146.834 15.3962 151.966 15.3962C156.6 15.3962 158.595 18.8176 158.595 23.0536C158.595 24.1941 158.595 25.0087 158.453 25.9862ZM148.117 22.8907H155.388C155.388 20.121 154.105 18.4918 151.895 18.4918C149.543 18.5732 148.331 20.0395 148.117 22.8907ZM169.786 15.6406C169.786 16.7811 169.644 18.0844 169.501 18.8176C168.717 18.7361 168.004 18.6547 167.078 18.6547C166.294 18.6547 165.509 18.7361 164.725 18.8176V33.1548H161.518V16.3738C162.872 15.8035 165.224 15.3962 167.006 15.3962C167.933 15.4777 169.073 15.4777 169.786 15.6406Z" fill="white"/>
</svg>
